<svg width="55" height="49" viewBox="0 0 55 49" fill="none" xmlns="http://www.w3.org/2000/svg">
<path d="M12.9558 0H21.1959V5.65884H15.8845C14.9414 5.65884 14.6932 6.40343 14.6932 6.89982V18.7635L7.64443 24.1245L14.6932 29.5352V40.7536C14.6932 42.1435 15.0903 42.5902 16.232 42.5902H21.1959V48.1498H13.0551C10.8213 48.1498 7.94227 45.8664 7.94227 42.8384V32.0171L3.05176e-05 26.4576V21.6426L7.94227 16.083V6.00632C7.94227 3.27617 9.1336 0.446752 12.9558 0Z" fill="#0062FF"/>
<path d="M42.0442 48.1498H33.8042V42.4909H39.1155C40.0587 42.4909 40.3069 41.7464 40.3069 41.25V29.3862L47.3556 24.0252L40.3069 18.6146L40.3069 7.39619C40.3069 6.00629 39.9098 5.55955 38.7681 5.55955H33.8042L33.8042 -1.52588e-05H41.945C44.1787 -1.52588e-05 47.0578 2.28337 47.0578 5.31135L47.0578 16.1326L55 21.6922V26.5072L47.0578 32.0668V42.1435C47.0578 44.8736 45.8664 47.703 42.0442 48.1498Z" fill="#0062FF"/>
</svg>
