<svg width="120" height="120" viewBox="0 0 120 120" fill="none" xmlns="http://www.w3.org/2000/svg">
<path d="M60 0C43.7066 0 41.664 0.103613 35.265 0.366994C28.8793 0.658724 24.5266 1.65812 20.7108 3.14214C16.7654 4.67509 13.406 6.73598 10.0707 10.072C6.73538 13.408 4.69405 16.7496 3.16108 20.6954C1.67757 24.5123 0.659163 28.8834 0.367871 35.2703C0.0752551 41.6703 0 43.7133 0 60.0094C0 76.3064 0.0752311 78.3485 0.367871 84.7485C0.659547 91.1354 1.67757 95.4886 3.16108 99.3055C4.69405 103.251 6.73538 106.593 10.0707 109.929C13.406 113.265 16.7654 115.324 20.7108 116.858C24.5266 118.341 28.8793 119.36 35.265 119.652C41.664 119.944 43.7066 120 60 120C76.2934 120 78.3359 119.906 84.735 119.652C91.1207 119.36 95.4917 118.341 99.3075 116.858C103.253 115.324 106.594 113.265 109.929 109.929C113.265 106.593 115.306 103.251 116.839 99.3055C118.322 95.4886 119.341 91.1354 119.632 84.7485C119.925 78.3485 120 76.3064 120 60.0094C120 43.7133 119.925 41.6703 119.632 35.2703C119.34 28.8834 118.322 24.5123 116.839 20.6954C115.306 16.7496 113.265 13.408 109.929 10.072C106.594 6.73598 103.253 4.67509 99.3075 3.14214C95.4917 1.65812 91.1207 0.658724 84.735 0.366994C78.336 0.075268 76.2934 0 60 0ZM60 10.8069C76.0191 10.8069 77.9123 10.9009 84.2387 11.1551C90.0879 11.4186 93.2793 12.4105 95.3934 13.232C98.1938 14.3208 100.185 15.6175 102.285 17.717C104.384 19.8165 105.681 21.8087 106.768 24.6092C107.59 26.7238 108.578 29.9158 108.845 35.7653C109.133 42.0929 109.194 43.9872 109.194 60.0085C109.194 76.0307 109.128 77.925 108.845 84.2516C108.578 90.1021 107.59 93.2753 106.768 95.3898C105.681 98.1904 104.384 100.2 102.285 102.3C100.185 104.399 98.1938 105.696 95.3934 106.785C93.2793 107.604 90.0879 108.578 84.2387 108.844C77.9133 109.136 76.0205 109.192 60 109.192C43.9795 109.192 42.0867 109.098 35.7613 108.844C29.9121 108.58 26.739 107.606 24.625 106.785C21.8245 105.696 19.8146 104.399 17.7154 102.3C15.6163 100.2 14.3199 98.1904 13.2315 95.3898C12.4101 93.2753 11.4404 90.1021 11.1734 84.2516C10.8854 77.925 10.8243 76.0307 10.8243 60.0085C10.8243 43.9872 10.8901 42.0929 11.1734 35.7653C11.4406 29.9158 12.4101 26.7238 13.2315 24.6092C14.3199 21.8087 15.6163 19.8165 17.7154 17.717C19.8146 15.6175 21.8245 14.3208 24.625 13.232C26.739 12.4133 29.9121 11.4224 35.7613 11.1551C42.0877 10.8634 43.9809 10.8069 60 10.8069ZM92.0305 20.7688C88.0547 20.7688 84.8268 23.9966 84.8268 27.9734C84.8268 31.9503 88.0547 35.1781 92.0305 35.1781C96.0067 35.1781 99.2341 31.9503 99.2341 27.9734C99.2341 23.9966 96.0067 20.7688 92.0305 20.7688ZM60 29.1865C42.9855 29.1865 29.2008 42.9925 29.2008 60.0094C29.2008 77.0273 42.9855 90.8135 60 90.8135C77.0145 90.8135 90.8176 77.0273 90.8176 60.0094C90.8176 42.9925 77.0145 29.1865 60 29.1865ZM60 40.0122C71.0446 40.0122 79.9938 48.9634 79.9938 60.0094C79.9938 71.0563 71.0446 80.0066 60 80.0066C48.9554 80.0066 40.0062 71.0563 40.0062 60.0094C40.0062 48.9634 48.9554 40.0122 60 40.0122Z" fill="#C99643"/>
</svg>
