<svg width="188" height="49" viewBox="0 0 188 49" fill="none" xmlns="http://www.w3.org/2000/svg">
<path d="M176.127 34.131H178.689L182.064 42.3892L185.439 34.131H188L183.117 45.6206H181.011L176.127 34.131Z" fill="url(#paint0_linear_3_23)"/>
<path d="M169.321 45.9797C167.198 45.9797 165.531 45.453 164.318 44.3998C163.121 43.3307 162.523 41.8306 162.523 39.8997C162.523 38.0167 163.057 36.5247 164.127 35.4236C165.212 34.3225 166.752 33.7719 168.746 33.7719C170.071 33.7719 171.196 34.0273 172.121 34.5379C173.047 35.0326 173.741 35.7268 174.204 36.6204C174.683 37.4981 174.922 38.5034 174.922 39.6364V40.8333H164.821C164.901 41.9184 165.355 42.7322 166.185 43.2748C167.031 43.8014 168.172 44.0647 169.608 44.0647C170.342 44.0647 171.084 44.0009 171.834 43.8732C172.584 43.7296 173.246 43.5461 173.821 43.3227V45.2616C173.31 45.469 172.632 45.6366 171.786 45.7642C170.957 45.9078 170.135 45.9797 169.321 45.9797ZM172.648 39.1338C172.616 38.0486 172.257 37.2108 171.571 36.6204C170.901 36.014 169.943 35.7108 168.698 35.7108C167.486 35.7108 166.544 36.022 165.874 36.6443C165.204 37.2667 164.853 38.0965 164.821 39.1338H172.648Z" fill="url(#paint1_linear_3_23)"/>
<path d="M152.753 45.9797C151.604 45.9797 150.567 45.7323 149.641 45.2376C148.732 44.727 148.013 44.0169 147.487 43.1073C146.976 42.1817 146.721 41.1125 146.721 39.8998C146.721 38.7029 146.976 37.6417 147.487 36.7162C148.013 35.7906 148.732 35.0725 149.641 34.5619C150.567 34.0353 151.604 33.772 152.753 33.772C154.827 33.772 156.399 34.4023 157.468 35.663V27.9314H159.886V45.6206H157.54V43.9451C156.902 44.6472 156.2 45.1658 155.434 45.5009C154.684 45.8201 153.79 45.9797 152.753 45.9797ZM153.303 44.0647C154.293 44.0647 155.155 43.8094 155.889 43.2988C156.639 42.7722 157.165 42.07 157.468 41.1923V38.6072C157.197 37.7295 156.679 37.0274 155.913 36.5007C155.163 35.9741 154.293 35.7108 153.303 35.7108C152.522 35.7108 151.811 35.8864 151.173 36.2374C150.551 36.5885 150.056 37.0832 149.689 37.7215C149.338 38.3598 149.162 39.0859 149.162 39.8998C149.162 40.7136 149.338 41.4397 149.689 42.078C150.056 42.7163 150.551 43.211 151.173 43.5621C151.811 43.8972 152.522 44.0647 153.303 44.0647Z" fill="url(#paint2_linear_3_23)"/>
<path d="M143.428 45.6206C143.109 45.6206 142.837 45.5169 142.614 45.3094C142.407 45.086 142.303 44.8148 142.303 44.4956C142.303 44.1764 142.407 43.9052 142.614 43.6817C142.837 43.4583 143.109 43.3466 143.428 43.3466C143.747 43.3466 144.018 43.4583 144.242 43.6817C144.465 43.9052 144.577 44.1764 144.577 44.4956C144.577 44.8148 144.465 45.086 144.242 45.3094C144.018 45.5169 143.747 45.6206 143.428 45.6206Z" fill="url(#paint3_linear_3_23)"/>
<path d="M134.538 45.9797C132.415 45.9797 130.748 45.453 129.535 44.3998C128.338 43.3307 127.74 41.8306 127.74 39.8997C127.74 38.0167 128.274 36.5247 129.344 35.4236C130.429 34.3225 131.969 33.7719 133.963 33.7719C135.288 33.7719 136.413 34.0273 137.338 34.5379C138.264 35.0326 138.958 35.7268 139.421 36.6204C139.9 37.4981 140.139 38.5034 140.139 39.6364V40.8333H130.038C130.118 41.9184 130.572 42.7322 131.402 43.2748C132.248 43.8014 133.389 44.0647 134.825 44.0647C135.559 44.0647 136.301 44.0009 137.051 43.8732C137.801 43.7296 138.463 43.5461 139.038 43.3227V45.2616C138.527 45.469 137.849 45.6366 137.003 45.7642C136.174 45.9078 135.352 45.9797 134.538 45.9797ZM137.865 39.1338C137.833 38.0486 137.474 37.2108 136.788 36.6204C136.118 36.014 135.16 35.7108 133.915 35.7108C132.703 35.7108 131.761 36.022 131.091 36.6443C130.421 37.2667 130.07 38.0965 130.038 39.1338H137.865Z" fill="url(#paint4_linear_3_23)"/>
<path d="M123.694 45.9797C122.529 45.9797 121.627 45.6446 120.989 44.9743C120.367 44.3041 120.056 43.3546 120.056 42.1259V35.9981H118.308V34.131H120.056V30.6841H122.497V34.131H125.322V35.9981H122.497V41.9583C122.497 42.7243 122.641 43.2669 122.928 43.586C123.231 43.9052 123.774 44.0648 124.556 44.0648C125.018 44.0648 125.481 43.961 125.944 43.7536V45.6685C125.338 45.876 124.588 45.9797 123.694 45.9797Z" fill="url(#paint5_linear_3_23)"/>
<path d="M109.705 34.131H112.051V36.1896C112.53 35.4874 113.2 34.9688 114.061 34.6337C114.939 34.2986 115.952 34.131 117.101 34.131V36.022C115.873 36.022 114.819 36.2215 113.942 36.6204C113.064 37.0194 112.458 37.6497 112.123 38.5114V45.6206H109.705V34.131Z" fill="url(#paint6_linear_3_23)"/>
<path d="M100.194 45.9797C98.8058 45.9797 97.6887 45.6286 96.843 44.9264C96.0132 44.2083 95.5983 43.2429 95.5983 42.0301C95.5983 40.7535 95.9972 39.7721 96.7951 39.0859C97.6089 38.3837 98.7579 38.0327 100.242 38.0327C101.822 38.0327 103.162 38.3518 104.263 38.9901V38.3917C104.263 37.4821 103.984 36.8119 103.426 36.381C102.883 35.9342 102.021 35.7108 100.84 35.7108C100.138 35.7108 99.4521 35.7826 98.7818 35.9262C98.1276 36.0539 97.5371 36.2374 97.0105 36.4768V34.514C97.4893 34.2906 98.1116 34.115 98.8776 33.9874C99.6436 33.8438 100.386 33.7719 101.104 33.7719C103.003 33.7719 104.407 34.1948 105.317 35.0406C106.242 35.8704 106.705 37.0273 106.705 38.5114V45.6206H104.431V44.328C103.936 44.8706 103.346 45.2855 102.66 45.5727C101.989 45.844 101.168 45.9797 100.194 45.9797ZM100.793 44.1365C101.559 44.1365 102.253 43.9849 102.875 43.6817C103.497 43.3785 103.96 42.9557 104.263 42.4131V40.8572C103.226 40.187 102.069 39.8519 100.793 39.8519C99.867 39.8519 99.1728 40.0354 98.71 40.4024C98.2632 40.7535 98.0398 41.296 98.0398 42.0301C98.0398 43.4344 98.9574 44.1365 100.793 44.1365Z" fill="url(#paint7_linear_3_23)"/>
<path d="M86.647 45.9797C85.0991 45.9797 83.9262 45.5648 83.1283 44.735C82.3464 43.9052 81.9554 42.7961 81.9554 41.4078V34.131H84.373V41.312C84.373 43.1472 85.2906 44.0647 87.1257 44.0647C88.7375 44.0647 89.9981 43.3387 90.9077 41.8865V34.131H93.3253V45.6206H90.9795V43.9929C90.437 44.6791 89.7907 45.1818 89.0407 45.5009C88.3066 45.8201 87.5087 45.9797 86.647 45.9797Z" fill="url(#paint8_linear_3_23)"/>
<path d="M71.8263 45.9797C70.6774 45.9797 69.6401 45.7323 68.7146 45.2376C67.805 44.727 67.0869 44.0169 66.5603 43.1073C66.0496 42.1817 65.7943 41.1125 65.7943 39.8998C65.7943 38.7029 66.0496 37.6417 66.5603 36.7162C67.0869 35.7906 67.805 35.0725 68.7146 34.5619C69.6401 34.0353 70.6774 33.772 71.8263 33.772C73.9008 33.772 75.4727 34.4023 76.5419 35.663V27.9314H78.9595V45.6206H76.6137V43.9451C75.9754 44.6472 75.2732 45.1658 74.5072 45.5009C73.7572 45.8201 72.8636 45.9797 71.8263 45.9797ZM72.3769 44.0647C73.3663 44.0647 74.228 43.8094 74.962 43.2988C75.7121 42.7722 76.2387 42.07 76.5419 41.1923V38.6072C76.2706 37.7295 75.7519 37.0274 74.986 36.5007C74.236 35.9741 73.3663 35.7108 72.3769 35.7108C71.5949 35.7108 70.8848 35.8864 70.2465 36.2374C69.6242 36.5885 69.1295 37.0832 68.7624 37.7215C68.4114 38.3598 68.2358 39.0859 68.2358 39.8998C68.2358 40.7136 68.4114 41.4397 68.7624 42.078C69.1295 42.7163 69.6242 43.211 70.2465 43.5621C70.8848 43.8972 71.5949 44.0647 72.3769 44.0647Z" fill="url(#paint9_linear_3_23)"/>
<path d="M127.706 20.0483C126.413 20.0483 125.272 19.8089 124.283 19.3302C123.31 18.8355 122.544 18.1334 121.985 17.2238C121.443 16.2982 121.171 15.2131 121.171 13.9684C121.171 12.7396 121.443 11.6625 121.985 10.7369C122.528 9.81136 123.294 9.10124 124.283 8.60655C125.272 8.0959 126.413 7.84058 127.706 7.84058C128.999 7.84058 130.14 8.0959 131.129 8.60655C132.118 9.10124 132.884 9.81136 133.427 10.7369C133.985 11.6625 134.265 12.7396 134.265 13.9684C134.265 15.2131 133.985 16.2982 133.427 17.2238C132.884 18.1334 132.118 18.8355 131.129 19.3302C130.14 19.8089 128.999 20.0483 127.706 20.0483ZM127.706 18.1334C128.951 18.1334 129.94 17.7504 130.674 16.9844C131.408 16.2184 131.775 15.2131 131.775 13.9684C131.775 12.6758 131.408 11.6545 130.674 10.9045C129.94 10.1545 128.951 9.77945 127.706 9.77945C126.461 9.77945 125.472 10.1545 124.738 10.9045C124.004 11.6545 123.637 12.6758 123.637 13.9684C123.637 15.2131 124.004 16.2184 124.738 16.9844C125.472 17.7504 126.461 18.1334 127.706 18.1334Z" fill="url(#paint10_linear_3_23)"/>
<path d="M112.44 8.19962H114.786V10.2582C115.264 9.55603 115.935 9.0374 116.796 8.70229C117.674 8.36717 118.687 8.19962 119.836 8.19962V10.0906C118.608 10.0906 117.554 10.2901 116.677 10.689C115.799 11.088 115.193 11.7183 114.858 12.58V19.6892H112.44V8.19962Z" fill="url(#paint11_linear_3_23)"/>
<path d="M102.191 20.0483C101.042 20.0483 100.005 19.8009 99.0796 19.3062C98.17 18.7956 97.4519 18.0855 96.9253 17.1759C96.4146 16.2503 96.1593 15.1811 96.1593 13.9683C96.1593 12.7715 96.4146 11.7103 96.9253 10.7848C97.4519 9.85921 98.17 9.14111 99.0796 8.63046C100.005 8.10386 101.042 7.84055 102.191 7.84055C104.266 7.84055 105.838 8.47088 106.907 9.73155V2H109.324V19.6892H106.979V18.0136C106.34 18.7158 105.638 19.2344 104.872 19.5695C104.122 19.8887 103.229 20.0483 102.191 20.0483ZM102.742 18.1333C103.731 18.1333 104.593 17.878 105.327 17.3674C106.077 16.8407 106.604 16.1386 106.907 15.2609V12.6758C106.636 11.7981 106.117 11.0959 105.351 10.5693C104.601 10.0427 103.731 9.77942 102.742 9.77942C101.96 9.77942 101.25 9.95496 100.612 10.306C99.9891 10.6571 99.4945 11.1518 99.1274 11.7901C98.7764 12.4284 98.6008 13.1545 98.6008 13.9683C98.6008 14.7822 98.7764 15.5083 99.1274 16.1466C99.4945 16.7849 99.9891 17.2796 100.612 17.6307C101.25 17.9658 101.96 18.1333 102.742 18.1333Z" fill="url(#paint12_linear_3_23)"/>
<path d="M88.3943 20.0483C86.2719 20.0483 84.6043 19.5217 83.3915 18.4685C82.1947 17.3993 81.5962 15.8993 81.5962 13.9684C81.5962 12.0853 82.1308 10.5933 83.2 9.49221C84.2851 8.39112 85.8251 7.84058 87.8198 7.84058C89.1443 7.84058 90.2693 8.0959 91.1949 8.60655C92.1204 9.10124 92.8146 9.79541 93.2773 10.689C93.7561 11.5667 93.9954 12.5721 93.9954 13.7051V14.9019H83.8942C83.974 15.987 84.4287 16.8009 85.2586 17.3434C86.1043 17.8701 87.2453 18.1334 88.6815 18.1334C89.4156 18.1334 90.1576 18.0695 90.9076 17.9419C91.6576 17.7982 92.3199 17.6147 92.8944 17.3913V19.3302C92.3837 19.5376 91.7055 19.7052 90.8597 19.8329C90.0299 19.9765 89.2081 20.0483 88.3943 20.0483ZM91.7215 13.2024C91.6895 12.1173 91.3305 11.2795 90.6443 10.689C89.9741 10.0826 89.0166 9.77945 87.7719 9.77945C86.5591 9.77945 85.6176 10.0906 84.9474 10.713C84.2771 11.3353 83.9261 12.1651 83.8942 13.2024H91.7215Z" fill="url(#paint13_linear_3_23)"/>
<path d="M66.273 8.19963H68.6188V9.89913C69.7997 8.52676 71.3954 7.84058 73.4061 7.84058C74.5551 7.84058 75.5844 8.0959 76.494 8.60655C77.4195 9.1172 78.1376 9.8353 78.6483 10.7609C79.1749 11.6704 79.4382 12.7316 79.4382 13.9444C79.4382 15.1413 79.1749 16.2025 78.6483 17.128C78.1376 18.0536 77.4275 18.7717 76.5179 19.2823C75.6083 19.793 74.571 20.0483 73.4061 20.0483C72.4487 20.0483 71.555 19.8887 70.7252 19.5696C69.8954 19.2504 69.2172 18.7796 68.6906 18.1573V24.9314H66.273V8.19963ZM72.8556 18.1334C73.6375 18.1334 74.3397 17.9658 74.962 17.6307C75.6003 17.2796 76.095 16.7849 76.4461 16.1466C76.8131 15.5083 76.9966 14.7742 76.9966 13.9444C76.9966 13.1146 76.8131 12.3885 76.4461 11.7662C76.095 11.1279 75.6003 10.6412 74.962 10.3061C74.3397 9.95498 73.6375 9.77945 72.8556 9.77945C71.8822 9.77945 71.0204 10.0348 70.2704 10.5454C69.5364 11.0561 69.0098 11.7582 68.6906 12.6519V15.237C68.9619 16.1147 69.4805 16.8168 70.2465 17.3434C71.0125 17.8701 71.8822 18.1334 72.8556 18.1334Z" fill="url(#paint14_linear_3_23)"/>
<path d="M12.9558 0H21.1959V5.65884H15.8845C14.9414 5.65884 14.6932 6.40343 14.6932 6.89982V18.7635L7.64443 24.1245L14.6932 29.5352V40.7536C14.6932 42.1435 15.0903 42.5902 16.232 42.5902H21.1959V48.1498H13.0551C10.8213 48.1498 7.94227 45.8664 7.94227 42.8384V32.0171L3.05176e-05 26.4576V21.6426L7.94227 16.083V6.00632C7.94227 3.27617 9.1336 0.446752 12.9558 0Z" fill="#0062FF"/>
<path d="M42.0442 48.1498H33.8042V42.4909H39.1155C40.0587 42.4909 40.3069 41.7464 40.3069 41.25V29.3862L47.3556 24.0252L40.3069 18.6146L40.3069 7.39619C40.3069 6.00629 39.9098 5.55955 38.7681 5.55955H33.8042L33.8042 -1.52588e-05H41.945C44.1787 -1.52588e-05 47.0578 2.28337 47.0578 5.31135L47.0578 16.1326L55 21.6922V26.5072L47.0578 32.0668V42.1435C47.0578 44.8736 45.8664 47.703 42.0442 48.1498Z" fill="#0062FF"/>
<defs>
<linearGradient id="paint0_linear_3_23" x1="173.719" y1="38.8335" x2="202.866" y2="38.7612" gradientUnits="userSpaceOnUse">
<stop stop-color="white"/>
<stop offset="1" stop-color="#4B5563"/>
</linearGradient>
<linearGradient id="paint1_linear_3_23" x1="160.007" y1="38.7683" x2="190.447" y2="38.6941" gradientUnits="userSpaceOnUse">
<stop stop-color="white"/>
<stop offset="1" stop-color="#4B5563"/>
</linearGradient>
<linearGradient id="paint2_linear_3_23" x1="144.05" y1="35.3182" x2="176.37" y2="35.2616" gradientUnits="userSpaceOnUse">
<stop stop-color="white"/>
<stop offset="1" stop-color="#4B5563"/>
</linearGradient>
<linearGradient id="paint3_linear_3_23" x1="141.841" y1="44.2773" x2="147.424" y2="44.2639" gradientUnits="userSpaceOnUse">
<stop stop-color="white"/>
<stop offset="1" stop-color="#4B5563"/>
</linearGradient>
<linearGradient id="paint4_linear_3_23" x1="125.224" y1="38.7683" x2="155.664" y2="38.6941" gradientUnits="userSpaceOnUse">
<stop stop-color="white"/>
<stop offset="1" stop-color="#4B5563"/>
</linearGradient>
<linearGradient id="paint5_linear_3_23" x1="116.759" y1="36.9443" x2="135.505" y2="36.9218" gradientUnits="userSpaceOnUse">
<stop stop-color="white"/>
<stop offset="1" stop-color="#4B5563"/>
</linearGradient>
<linearGradient id="paint6_linear_3_23" x1="108.204" y1="38.8335" x2="126.362" y2="38.8054" gradientUnits="userSpaceOnUse">
<stop stop-color="white"/>
<stop offset="1" stop-color="#4B5563"/>
</linearGradient>
<linearGradient id="paint7_linear_3_23" x1="93.3449" y1="38.7683" x2="120.611" y2="38.7088" gradientUnits="userSpaceOnUse">
<stop stop-color="white"/>
<stop offset="1" stop-color="#4B5563"/>
</linearGradient>
<linearGradient id="paint8_linear_3_23" x1="79.6486" y1="38.9804" x2="107.561" y2="38.9162" gradientUnits="userSpaceOnUse">
<stop stop-color="white"/>
<stop offset="1" stop-color="#4B5563"/>
</linearGradient>
<linearGradient id="paint9_linear_3_23" x1="63.1232" y1="35.3182" x2="95.4434" y2="35.2616" gradientUnits="userSpaceOnUse">
<stop stop-color="white"/>
<stop offset="1" stop-color="#4B5563"/>
</linearGradient>
<linearGradient id="paint10_linear_3_23" x1="118.515" y1="12.8369" x2="150.659" y2="12.7542" gradientUnits="userSpaceOnUse">
<stop stop-color="white"/>
<stop offset="1" stop-color="#4B5563"/>
</linearGradient>
<linearGradient id="paint11_linear_3_23" x1="110.939" y1="12.9021" x2="129.097" y2="12.874" gradientUnits="userSpaceOnUse">
<stop stop-color="white"/>
<stop offset="1" stop-color="#4B5563"/>
</linearGradient>
<linearGradient id="paint12_linear_3_23" x1="93.4882" y1="9.38679" x2="125.808" y2="9.33023" gradientUnits="userSpaceOnUse">
<stop stop-color="white"/>
<stop offset="1" stop-color="#4B5563"/>
</linearGradient>
<linearGradient id="paint13_linear_3_23" x1="79.0806" y1="12.8369" x2="109.52" y2="12.7628" gradientUnits="userSpaceOnUse">
<stop stop-color="white"/>
<stop offset="1" stop-color="#4B5563"/>
</linearGradient>
<linearGradient id="paint14_linear_3_23" x1="63.6019" y1="14.8355" x2="95.9221" y2="14.7758" gradientUnits="userSpaceOnUse">
<stop stop-color="white"/>
<stop offset="1" stop-color="#4B5563"/>
</linearGradient>
</defs>
</svg>
